<svg width="694" height="469" viewBox="0 0 694 469" fill="none" xmlns="http://www.w3.org/2000/svg">
<g clip-path="url(#clip0_709_947)">
<path d="M46.7045 353.417C43.4091 353.417 40.1068 353.553 36.882 353.827L36.4126 353.867C15.022 355.756 -0.624341 366.719 0.0191466 379.368L0.143548 381.655C0.225584 383.1 0.312991 384.655 0.384936 386.379C0.423902 387.23 1.5852 387.882 3.0302 387.882H529.189C566.286 387.657 603.248 387.374 639.043 387.04C645.756 387.054 652.466 386.707 659.141 386C669.089 384.823 675.993 382.491 680.251 378.87H680.253C685.547 374.38 685.714 368.726 685.394 362.337C684.742 349.438 684.095 335.886 683.449 322.376C682.879 310.469 682.311 298.594 681.744 287.225C681.393 280.478 680.613 274.523 674.6 269.972C668.083 265.049 656.198 262.554 639.273 262.554C639.069 262.554 638.866 262.554 638.659 262.555C585.619 262.743 533.065 280.968 507.886 307.905C504.986 311.006 502.285 314.327 499.672 317.539C495.811 322.284 491.819 327.189 487.056 331.576C484.477 333.984 481.688 336.156 478.722 338.068C478.518 338.209 478.284 338.36 478.036 338.504C477.47 338.873 476.878 339.228 476.301 339.545C472.923 341.494 469.364 343.111 465.673 344.373L465.301 344.498C465.02 344.598 464.716 344.699 464.412 344.79C462.281 345.474 460.067 346.065 457.848 346.543C448.25 348.657 437.337 349.164 425.411 348.048C414.46 346.996 403.65 344.794 393.159 341.48C382.116 337.993 371.78 333.644 361.784 329.44C357.393 327.592 352.852 325.682 348.316 323.872C347.464 323.532 346.625 323.199 345.774 322.866C340.235 320.709 335.212 318.927 330.421 317.419C318.55 313.668 306.261 311.394 293.834 310.647C280.642 309.925 269.018 311.287 259.291 314.683C256.609 315.616 253.998 316.741 251.477 318.048C239.956 324.026 232.854 332.85 225.986 341.383C217.442 351.997 208.607 362.974 191.162 368.664C171.032 375.235 141.649 372.505 120.861 367.757C114.325 366.264 107.798 364.547 101.484 362.885C98.9345 362.214 96.383 361.547 93.8296 360.885C88.8121 359.591 84.7057 358.599 80.9066 357.762L79.705 357.495C79.0366 357.35 78.3676 357.204 77.6864 357.066C73.1739 356.12 68.972 355.375 64.834 354.789L63.855 354.646C61.8922 354.387 60.0572 354.172 58.2565 353.992L57.5377 353.92C54.0109 353.585 50.3611 353.417 46.7045 353.417Z" fill="#F2F2F2"/>
<path d="M590.784 367.534C605.589 354.202 627.61 347.499 646.082 354.974C627.134 365.487 612.518 382.358 604.819 402.603C601.879 410.421 599.422 419.423 592.189 423.609C587.689 426.213 582.09 426.34 577.044 425.083C571.997 423.826 567.372 421.305 562.81 418.81L561.512 418.781C567.339 399.736 575.979 380.866 590.784 367.534Z" fill="#E6E6E6"/>
<path d="M645.979 355.379C629.619 357.492 614.341 364.702 602.315 375.985C599.683 378.369 597.444 381.151 595.679 384.231C594.057 387.287 593.283 390.722 593.438 394.177C593.518 397.402 593.974 400.692 593.268 403.88C592.882 405.507 592.157 407.034 591.139 408.361C590.122 409.687 588.835 410.784 587.363 411.579C583.748 413.656 579.602 414.311 575.526 414.81C570.999 415.364 566.289 415.869 562.371 418.406C561.896 418.713 561.446 417.959 561.92 417.652C568.737 413.238 577.363 414.844 584.694 411.898C588.114 410.523 591.141 408.11 592.212 404.462C593.148 401.272 592.682 397.879 592.572 394.615C592.372 391.246 592.999 387.879 594.401 384.808C596.003 381.648 598.132 378.784 600.695 376.338C606.38 370.738 612.91 366.067 620.046 362.494C628.168 358.372 636.936 355.669 645.971 354.501C646.53 354.429 646.534 355.308 645.979 355.379H645.979Z" fill="white"/>
<path d="M605.974 372.124C604.353 369.851 603.594 367.076 603.832 364.295C604.07 361.515 605.289 358.909 607.272 356.943C607.675 356.547 608.31 357.153 607.907 357.55C606.057 359.377 604.921 361.805 604.705 364.395C604.489 366.985 605.206 369.567 606.728 371.674C607.058 372.133 606.302 372.58 605.974 372.124V372.124Z" fill="white"/>
<path d="M593.18 392.547C598.802 393.543 604.593 392.384 609.398 389.302C609.874 388.997 610.324 389.751 609.849 390.056C604.842 393.254 598.814 394.447 592.965 393.398C592.408 393.298 592.626 392.448 593.18 392.547Z" fill="white"/>
<path d="M628.241 359.534C628.684 360.544 629.372 361.428 630.242 362.107C631.112 362.786 632.138 363.238 633.226 363.423C633.784 363.517 633.566 364.367 633.011 364.275C631.81 364.064 630.678 363.564 629.715 362.816C628.752 362.068 627.987 361.096 627.487 359.984C627.431 359.883 627.415 359.765 627.443 359.653C627.472 359.541 627.541 359.444 627.639 359.382C627.739 359.323 627.858 359.306 627.971 359.334C628.084 359.363 628.181 359.435 628.241 359.534Z" fill="white"/>
<path d="M666.423 419.267C666.073 419.219 665.723 419.17 665.367 419.127C660.654 418.502 655.899 418.261 651.147 418.405C650.779 418.411 650.407 418.422 650.04 418.438C638.595 418.908 627.338 421.497 616.839 426.075C612.663 427.9 608.632 430.04 604.781 432.476C599.463 435.841 593.964 439.912 588.019 441.285C587.4 441.435 586.773 441.546 586.14 441.619L561.577 420.365C561.545 420.289 561.508 420.218 561.477 420.141L560.457 419.338C560.647 419.198 560.847 419.057 561.037 418.918C561.146 418.837 561.262 418.76 561.371 418.679C561.446 418.626 561.522 418.573 561.586 418.521C561.611 418.504 561.636 418.486 561.656 418.474C561.721 418.422 561.786 418.381 561.846 418.335C562.961 417.546 564.084 416.763 565.214 415.987C565.219 415.981 565.219 415.981 565.229 415.98C573.784 409.984 583.02 405.022 592.745 401.2C593.037 401.09 593.333 400.974 593.636 400.873C598.016 399.246 602.521 397.979 607.107 397.085C609.619 396.604 612.155 396.25 614.703 396.025C621.29 395.456 627.924 395.926 634.364 397.417C647.202 400.392 658.945 407.436 665.9 418.422C666.078 418.703 666.25 418.98 666.423 419.267Z" fill="#E6E6E6"/>
<path d="M666.096 419.531C651.761 411.375 635.219 407.94 618.819 409.714C615.281 410.033 611.816 410.907 608.551 412.305C605.415 413.769 602.728 416.046 600.77 418.898C598.891 421.521 597.273 424.422 594.788 426.543C593.5 427.61 592.001 428.392 590.389 428.84C588.777 429.287 587.089 429.389 585.435 429.138C581.298 428.621 577.593 426.649 574.037 424.595C570.089 422.315 566.024 419.883 561.367 419.552C560.803 419.511 560.898 418.639 561.461 418.679C569.564 419.256 575.484 425.728 583.111 427.786C586.671 428.746 590.541 428.641 593.594 426.372C596.264 424.389 597.936 421.399 599.815 418.726C601.685 415.916 604.214 413.605 607.183 411.996C610.367 410.437 613.792 409.431 617.313 409.02C625.225 407.97 633.253 408.168 641.104 409.61C650.072 411.205 658.702 414.322 666.619 418.825C667.109 419.104 666.583 419.808 666.096 419.531V419.531Z" fill="white"/>
<path d="M624.067 408.832C624.142 406.042 625.208 403.37 627.073 401.292C628.939 399.215 631.482 397.868 634.25 397.492C634.81 397.417 634.952 398.284 634.391 398.358C631.813 398.704 629.444 399.959 627.711 401.897C625.978 403.835 624.995 406.328 624.94 408.926C624.927 409.491 624.054 409.393 624.067 408.832V408.832Z" fill="white"/>
<path d="M601.548 417.443C605.437 421.62 610.759 424.179 616.452 424.609C617.016 424.651 616.921 425.524 616.357 425.482C610.434 425.023 604.901 422.349 600.863 417.993C600.479 417.577 601.165 417.029 601.548 417.443H601.548Z" fill="white"/>
<path d="M649.43 412.175C649.176 413.249 649.192 414.369 649.478 415.434C649.764 416.5 650.31 417.478 651.067 418.28C651.457 418.69 650.77 419.238 650.383 418.83C649.55 417.94 648.948 416.859 648.63 415.683C648.312 414.506 648.287 413.269 648.557 412.081C648.573 411.967 648.632 411.863 648.722 411.791C648.812 411.719 648.926 411.683 649.041 411.692C649.156 411.705 649.262 411.763 649.335 411.854C649.408 411.944 649.442 412.06 649.43 412.175Z" fill="white"/>
<path d="M203.217 380.793C215.34 362.418 237.026 349.127 258.863 351.987C241.524 368.498 230.588 390.606 227.991 414.398C227.022 423.578 226.901 433.888 220.331 440.376C216.242 444.413 210.289 446.106 204.542 446.164C198.795 446.222 193.146 444.812 187.572 443.411L186.176 443.741C187.106 421.752 191.094 399.168 203.217 380.793Z" fill="#E6E6E6"/>
<path d="M258.866 352.449C241.957 359.256 227.624 371.215 217.903 386.626C215.752 389.907 214.131 393.506 213.101 397.291C212.217 401.01 212.345 404.898 213.473 408.551C214.457 411.978 215.86 415.37 215.992 418.976C216.033 420.823 215.682 422.658 214.963 424.36C214.244 426.062 213.174 427.592 211.821 428.852C208.533 432.078 204.281 433.931 200.059 435.598C195.373 437.449 190.475 439.298 186.991 443.101C186.569 443.562 185.878 442.88 186.299 442.42C192.362 435.804 202.035 435.123 209.054 429.935C212.33 427.514 214.895 424.092 215.025 419.892C215.139 416.219 213.695 412.721 212.669 409.259C211.516 405.712 211.25 401.937 211.894 398.263C212.728 394.438 214.208 390.782 216.269 387.453C220.789 379.884 226.473 373.073 233.111 367.268C240.65 360.601 249.275 355.273 258.613 351.512C259.191 351.28 259.44 352.218 258.866 352.449L258.866 352.449Z" fill="white"/>
<path d="M220.742 381.48C218.376 379.499 216.792 376.742 216.272 373.702C215.752 370.662 216.331 367.536 217.904 364.882C218.225 364.346 219.073 364.818 218.752 365.355C217.282 367.823 216.743 370.735 217.233 373.565C217.723 376.396 219.209 378.958 221.424 380.789C221.904 381.188 221.22 381.876 220.742 381.48Z" fill="white"/>
<path d="M212.744 406.879C219.034 406.381 224.905 403.531 229.187 398.9C229.61 398.44 230.301 399.122 229.878 399.581C225.414 404.392 219.298 407.345 212.752 407.849C212.128 407.897 212.124 406.926 212.744 406.879H212.744Z" fill="white"/>
<path d="M241.05 361.824C241.806 362.781 242.787 363.536 243.907 364.02C245.027 364.504 246.249 364.703 247.464 364.598C248.088 364.543 248.091 365.513 247.472 365.568C246.128 365.677 244.778 365.456 243.54 364.924C242.302 364.392 241.213 363.565 240.369 362.515C240.281 362.423 240.231 362.3 240.23 362.173C240.23 362.046 240.277 361.923 240.364 361.829C240.454 361.738 240.577 361.686 240.706 361.686C240.834 361.685 240.958 361.734 241.05 361.824H241.05Z" fill="white"/>
<path d="M298.517 415.095C298.129 415.141 297.741 415.187 297.349 415.239C292.135 415.881 286.981 416.945 281.939 418.421C281.547 418.529 281.152 418.644 280.764 418.763C268.655 422.447 257.335 428.347 247.381 436.161C243.423 439.274 239.707 442.683 236.266 446.359C231.515 451.437 226.768 457.32 220.791 460.44C220.172 460.773 219.532 461.067 218.875 461.32L186.687 445.417C186.632 445.345 186.573 445.279 186.517 445.206L185.203 444.63C185.367 444.428 185.542 444.222 185.706 444.02C185.801 443.902 185.903 443.788 185.998 443.671C186.063 443.593 186.129 443.516 186.184 443.443C186.205 443.417 186.227 443.391 186.245 443.373C186.3 443.299 186.358 443.237 186.409 443.171C187.383 442.017 188.365 440.868 189.358 439.723C189.362 439.716 189.362 439.716 189.372 439.712C196.958 431.012 205.337 422.869 214.687 416.255C214.968 416.056 215.253 415.849 215.549 415.658C219.78 412.7 224.245 410.092 228.901 407.862C231.455 406.648 234.068 405.565 236.731 404.616C243.617 402.176 250.844 400.834 258.147 400.639C272.705 400.251 287.226 404.521 297.723 414.337C297.991 414.589 298.253 414.837 298.517 415.095Z" fill="#E6E6E6"/>
<path d="M298.243 415.468C280.64 410.73 261.991 411.655 244.944 418.112C241.25 419.437 237.788 421.335 234.685 423.737C231.738 426.175 229.498 429.357 228.198 432.952C226.918 436.28 225.995 439.832 223.928 442.791C222.848 444.29 221.462 445.544 219.863 446.471C218.263 447.397 216.486 447.975 214.647 448.167C210.078 448.764 205.567 447.686 201.192 446.477C196.334 445.136 191.31 443.665 186.237 444.605C185.622 444.719 185.481 443.759 186.095 443.646C194.922 442.01 203.055 447.287 211.786 447.367C215.86 447.405 219.97 446.216 222.604 442.941C224.907 440.077 225.863 436.415 227.129 433.034C228.346 429.508 230.408 426.333 233.136 423.788C236.106 421.235 239.49 419.207 243.141 417.789C251.311 414.465 259.953 412.446 268.75 411.805C278.787 411.018 288.884 411.952 298.605 414.568C299.206 414.73 298.84 415.629 298.243 415.468Z" fill="white"/>
<path d="M250.312 415.71C249.616 412.705 250.012 409.55 251.428 406.81C252.845 404.07 255.19 401.922 258.046 400.75C258.624 400.515 259.017 401.402 258.438 401.638C255.777 402.724 253.592 404.725 252.278 407.279C250.964 409.834 250.607 412.774 251.272 415.568C251.416 416.176 250.454 416.314 250.312 415.71H250.312Z" fill="white"/>
<path d="M228.626 431.179C233.949 434.566 240.353 435.823 246.562 434.701C247.177 434.589 247.318 435.549 246.703 435.66C240.24 436.816 233.578 435.494 228.047 431.958C227.52 431.621 228.102 430.844 228.626 431.179V431.179Z" fill="white"/>
<path d="M278.37 412.235C278.397 413.453 278.726 414.646 279.328 415.707C279.93 416.767 280.787 417.661 281.82 418.309C282.351 418.639 281.769 419.416 281.241 419.087C280.103 418.366 279.158 417.378 278.49 416.208C277.822 415.038 277.451 413.723 277.41 412.376C277.395 412.25 277.429 412.122 277.505 412.02C277.581 411.918 277.693 411.848 277.819 411.826C277.946 411.807 278.075 411.84 278.178 411.917C278.282 411.993 278.35 412.108 278.37 412.235V412.235Z" fill="white"/>
<path d="M289.496 243.033C290.3 242.233 290.919 241.267 291.31 240.202C291.7 239.137 291.852 238 291.755 236.87C291.657 235.741 291.314 234.646 290.747 233.663C290.181 232.681 289.406 231.834 288.477 231.183L301.146 169.909L287.477 174.218L277.284 233.496C276.293 235.129 275.936 237.067 276.28 238.945C276.624 240.823 277.646 242.51 279.151 243.685C280.656 244.861 282.541 245.443 284.447 245.323C286.354 245.203 288.15 244.388 289.496 243.033Z" fill="#FFB6B6"/>
<path d="M318.78 79.2439L310.312 72.8569C310.312 72.8569 302.843 72.3283 301.52 85.7892C300.197 99.25 291.914 150.913 291.914 150.913L278.957 210.881L296.893 214.815L310.77 150.098L324.662 105.451L318.78 79.2439Z" fill="#E6E6E6"/>
<path d="M312.33 190.207L271.714 158.647C271.081 158.155 270.67 157.431 270.57 156.636C270.471 155.841 270.691 155.038 271.183 154.405L298.818 118.889C299.311 118.257 300.035 117.846 300.83 117.746C301.626 117.647 302.429 117.867 303.063 118.358L343.68 149.917C344.312 150.41 344.723 151.133 344.823 151.929C344.923 152.724 344.702 153.526 344.211 154.16L316.576 189.676C316.083 190.308 315.359 190.719 314.563 190.818C313.767 190.918 312.964 190.698 312.33 190.207Z" fill="#3F3D56"/>
<path d="M312.11 186.941L274.938 158.059C274.377 157.621 274.012 156.979 273.923 156.273C273.835 155.567 274.03 154.854 274.467 154.292L299.519 122.095C299.957 121.534 300.6 121.169 301.306 121.081C302.013 120.992 302.726 121.188 303.289 121.624L340.46 150.506C341.022 150.943 341.387 151.586 341.475 152.292C341.563 152.998 341.368 153.71 340.931 154.273L315.879 186.469C315.441 187.031 314.798 187.396 314.092 187.484C313.385 187.572 312.672 187.377 312.11 186.941Z" fill="white"/>
<path d="M279.81 157.24C279.669 157.13 279.578 156.97 279.556 156.793C279.534 156.617 279.583 156.439 279.692 156.298L292.33 140.056C292.439 139.915 292.6 139.824 292.777 139.802C292.864 139.791 292.953 139.797 293.038 139.821C293.123 139.844 293.203 139.884 293.272 139.938C293.342 139.992 293.4 140.059 293.444 140.136C293.487 140.213 293.516 140.297 293.526 140.384C293.537 140.472 293.531 140.561 293.508 140.646C293.484 140.73 293.444 140.81 293.39 140.88L280.752 157.122C280.643 157.262 280.482 157.354 280.305 157.376C280.129 157.398 279.95 157.349 279.81 157.24Z" fill="#E4E4E4"/>
<path d="M281.904 158.867C281.763 158.758 281.672 158.597 281.65 158.421C281.628 158.244 281.677 158.066 281.786 157.926L294.424 141.683C294.533 141.543 294.694 141.451 294.871 141.429C295.047 141.407 295.226 141.456 295.366 141.565C295.507 141.675 295.598 141.835 295.62 142.012C295.642 142.189 295.593 142.367 295.484 142.507L282.846 158.75C282.736 158.89 282.576 158.981 282.399 159.003C282.222 159.025 282.044 158.976 281.904 158.867Z" fill="#E4E4E4"/>
<path d="M291.157 151.293C291.017 151.184 290.926 151.023 290.904 150.847C290.882 150.67 290.93 150.492 291.04 150.352L296.518 143.311C296.572 143.241 296.639 143.183 296.716 143.139C296.793 143.095 296.877 143.067 296.965 143.056C297.052 143.045 297.141 143.051 297.226 143.075C297.312 143.098 297.391 143.138 297.461 143.192C297.531 143.246 297.589 143.314 297.633 143.39C297.676 143.467 297.704 143.552 297.715 143.639C297.726 143.727 297.72 143.816 297.696 143.901C297.673 143.986 297.632 144.065 297.578 144.135L292.1 151.175C291.99 151.316 291.83 151.407 291.653 151.429C291.476 151.451 291.298 151.402 291.157 151.293Z" fill="#E4E4E4"/>
<path d="M293.982 165.11C293.841 165 293.75 164.84 293.728 164.663C293.706 164.487 293.755 164.309 293.864 164.168L313.816 138.526C313.87 138.457 313.937 138.399 314.014 138.355C314.09 138.312 314.175 138.283 314.262 138.273C314.35 138.262 314.439 138.268 314.524 138.291C314.609 138.315 314.688 138.355 314.758 138.409C314.828 138.463 314.886 138.53 314.929 138.607C314.973 138.683 315.001 138.768 315.012 138.855C315.023 138.942 315.017 139.031 314.993 139.116C314.97 139.201 314.93 139.281 314.876 139.35L294.924 164.992C294.815 165.132 294.654 165.223 294.477 165.246C294.301 165.268 294.122 165.219 293.982 165.11Z" fill="#E4E4E4"/>
<path d="M296.075 166.737C295.935 166.628 295.844 166.467 295.822 166.291C295.8 166.114 295.848 165.936 295.958 165.796L315.909 140.154C315.964 140.084 316.031 140.026 316.107 139.983C316.184 139.939 316.269 139.911 316.356 139.9C316.444 139.889 316.532 139.895 316.617 139.919C316.702 139.942 316.782 139.982 316.852 140.036C316.921 140.09 316.98 140.157 317.023 140.234C317.067 140.311 317.095 140.395 317.106 140.483C317.117 140.57 317.11 140.659 317.087 140.744C317.064 140.829 317.024 140.908 316.97 140.978L297.018 166.62C296.908 166.76 296.748 166.851 296.571 166.873C296.394 166.895 296.216 166.846 296.075 166.737Z" fill="#E4E4E4"/>
<path d="M300.833 170.432C300.693 170.323 300.602 170.162 300.579 169.985C300.557 169.809 300.606 169.631 300.715 169.49L320.667 143.849C320.721 143.779 320.789 143.721 320.865 143.677C320.942 143.634 321.027 143.606 321.114 143.595C321.202 143.584 321.29 143.59 321.375 143.613C321.46 143.637 321.54 143.677 321.61 143.731C321.679 143.785 321.737 143.852 321.781 143.929C321.825 144.005 321.853 144.09 321.864 144.177C321.875 144.265 321.868 144.353 321.845 144.438C321.821 144.523 321.782 144.603 321.727 144.672L301.776 170.314C301.666 170.454 301.505 170.546 301.329 170.568C301.152 170.59 300.974 170.541 300.833 170.432Z" fill="#E4E4E4"/>
<path d="M302.927 172.059C302.787 171.95 302.695 171.79 302.673 171.613C302.651 171.436 302.7 171.258 302.809 171.118L322.761 145.476C322.815 145.406 322.882 145.348 322.959 145.305C323.036 145.261 323.12 145.233 323.208 145.222C323.295 145.211 323.384 145.218 323.469 145.241C323.554 145.264 323.634 145.304 323.703 145.358C323.773 145.412 323.831 145.48 323.875 145.556C323.918 145.633 323.946 145.717 323.957 145.805C323.968 145.892 323.962 145.981 323.939 146.066C323.915 146.151 323.875 146.23 323.821 146.3L303.869 171.942C303.76 172.082 303.599 172.173 303.423 172.195C303.246 172.217 303.068 172.168 302.927 172.059Z" fill="#E4E4E4"/>
<path d="M307.681 175.754C307.54 175.645 307.449 175.484 307.427 175.307C307.405 175.131 307.454 174.953 307.563 174.812L327.515 149.171C327.569 149.101 327.636 149.043 327.713 148.999C327.79 148.956 327.874 148.928 327.962 148.917C328.049 148.906 328.138 148.912 328.223 148.935C328.308 148.959 328.388 148.999 328.457 149.053C328.527 149.107 328.585 149.174 328.629 149.251C328.672 149.327 328.7 149.412 328.711 149.499C328.722 149.587 328.716 149.675 328.692 149.76C328.669 149.845 328.629 149.925 328.575 149.994L308.623 175.636C308.514 175.776 308.353 175.868 308.176 175.89C308 175.912 307.822 175.863 307.681 175.754Z" fill="#E4E4E4"/>
<path d="M309.775 177.381C309.634 177.272 309.543 177.111 309.521 176.935C309.499 176.758 309.548 176.58 309.657 176.44L329.609 150.798C329.718 150.658 329.879 150.567 330.055 150.546C330.232 150.524 330.409 150.573 330.55 150.682C330.69 150.791 330.781 150.951 330.804 151.127C330.826 151.304 330.778 151.481 330.669 151.622L310.717 177.264C310.608 177.404 310.447 177.495 310.27 177.517C310.094 177.539 309.915 177.49 309.775 177.381Z" fill="#E4E4E4"/>
<path d="M276.432 207.16C276.584 207.16 276.708 207.037 276.708 206.885C276.708 206.733 276.584 206.609 276.432 206.609C276.28 206.609 276.156 206.733 276.156 206.885C276.156 207.037 276.28 207.16 276.432 207.16Z" fill="white"/>
<path d="M316.603 17.3209C315.633 22.5274 314.043 27.5991 311.866 32.4277C299.403 58.7764 334.898 50.1881 347.582 50.1881C361.451 50.1881 374.721 57.4758 372.694 25.094C371.828 11.262 361.451 0 347.582 0C335.736 0 319.08 5.26173 316.603 17.3209Z" fill="#2F2E41"/>
<path d="M360.51 403.76H348.693L343.07 358.215H360.51V403.76Z" fill="#FFB6B6"/>
<path d="M366.747 424.219H358.273L356.761 416.224L352.887 424.219H330.412C329.335 424.219 328.285 423.875 327.418 423.237C326.55 422.599 325.909 421.701 325.588 420.673C325.268 419.645 325.284 418.542 325.636 417.524C325.987 416.507 326.655 415.628 327.541 415.016L345.489 402.629V394.547L364.367 395.673L366.747 424.219Z" fill="#2F2E41"/>
<path d="M430.714 388.859L421.232 395.905L389.523 362.711L403.518 352.311L430.714 388.859Z" fill="#FFB6B6"/>
<path d="M447.935 401.557L441.135 406.61L435.148 401.097L436.813 409.822L418.778 423.223C417.914 423.866 416.866 424.215 415.789 424.221C414.712 424.226 413.661 423.888 412.79 423.254C411.919 422.621 411.273 421.725 410.948 420.699C410.622 419.673 410.633 418.57 410.979 417.55L417.985 396.909L413.158 390.423L428.979 380.07L447.935 401.557Z" fill="#2F2E41"/>
<path d="M321.812 194.148L377.904 185.418L366.75 151.885H321.812V194.148Z" fill="#FFB6B6"/>
<path d="M374.269 168.774C374.269 168.774 396.689 188.13 386.345 243.308L373.716 297.374L408.123 357.067L390.628 366.603L348.227 307.714L328.825 262.234L318.562 182.528L374.269 168.774Z" fill="#2F2E41"/>
<path d="M339.521 275.195L338.172 296.064L342.119 357.862L361.717 364.605L365.429 301.287L339.521 275.195Z" fill="#2F2E41"/>
<path d="M333.495 57.1335L355.177 57.9787L363.818 72.3127L383.533 76.1587L371.764 135.658L373.928 169.524L354.297 169.405C340.149 169.319 326.468 174.455 315.876 183.828L316.464 139.867L308.02 107.051L309.917 72.6407L325.777 70.6596L333.495 57.1335Z" fill="#E6E6E6"/>
<path d="M345.508 50.1818C356.778 50.1818 365.914 41.0522 365.914 29.7901C365.914 18.5281 356.778 9.39838 345.508 9.39838C334.238 9.39838 325.102 18.5281 325.102 29.7901C325.102 41.0522 334.238 50.1818 345.508 50.1818Z" fill="#FFB6B6"/>
<path d="M331.65 9.00357C335.225 6.82519 339.321 5.6468 343.509 5.59163C347.696 5.53646 351.822 6.60655 355.454 8.68998C359.086 10.7734 362.091 13.7937 364.155 17.435C366.219 21.0763 367.267 25.2048 367.187 29.389C356.789 31.9978 345.866 33.9942 334.777 30.013L332.158 23.6085L330.614 30.0178C327.237 31.397 323.852 32.5641 320.466 30.0044C320.328 25.8321 321.288 21.6965 323.251 18.0112C325.213 14.3258 328.109 11.2198 331.65 9.00357Z" fill="#2F2E41"/>
<path d="M379.76 210.637L382.51 235.583C382.702 236.206 383.088 236.75 383.613 237.137C384.137 237.524 384.771 237.733 385.423 237.733H398.103C398.755 237.733 399.389 237.524 399.914 237.137C400.438 236.75 400.824 236.206 401.016 235.583L403.294 216.463C403.952 216.785 404.677 216.947 405.409 216.934C406.141 216.922 406.86 216.736 407.507 216.392C408.153 216.048 408.709 215.556 409.128 214.955C409.547 214.355 409.817 213.664 409.916 212.939C410.016 212.213 409.942 211.475 409.7 210.784C409.458 210.093 409.056 209.47 408.526 208.964C407.996 208.459 407.353 208.087 406.651 207.878C405.949 207.669 405.208 207.63 404.488 207.764C404.203 207.428 403.849 207.159 403.45 206.974C403.05 206.79 402.616 206.695 402.176 206.696H382.672C382.196 206.696 381.725 206.808 381.3 207.022C380.874 207.237 380.504 207.549 380.221 207.932C379.938 208.315 379.749 208.76 379.668 209.229C379.588 209.699 379.619 210.181 379.76 210.637ZM403.692 215.17L405.088 210.637C405.25 210.113 405.266 209.556 405.134 209.025C405.194 209.022 405.25 209.007 405.31 209.007C406.187 209.007 407.027 209.355 407.647 209.974C408.266 210.593 408.614 211.433 408.614 212.309C408.614 213.185 408.266 214.024 407.647 214.644C407.027 215.263 406.187 215.611 405.31 215.611C404.742 215.607 404.184 215.455 403.692 215.17Z" fill="#2CAD69"/>
<path d="M398.88 237.75C398.08 236.946 397.466 235.977 397.081 234.91C396.696 233.844 396.55 232.706 396.653 231.576C396.756 230.447 397.105 229.354 397.676 228.374C398.248 227.395 399.027 226.552 399.96 225.906L387.602 164.568L401.249 168.947L411.141 228.276C412.123 229.913 412.47 231.854 412.117 233.73C411.763 235.606 410.733 237.287 409.222 238.455C407.71 239.623 405.823 240.196 403.917 240.066C402.011 239.936 400.219 239.112 398.88 237.75Z" fill="#FFB6B6"/>
<path d="M375.066 82.5458L383.533 76.1587C383.533 76.1587 391.003 75.6302 392.326 89.091C393.649 102.552 401.932 154.214 401.932 154.214L414.889 214.183L396.953 218.117L383.075 153.4L369.184 108.753L375.066 82.5458Z" fill="#E6E6E6"/>
<path d="M301.985 138.382C304.632 138.382 306.778 136.238 306.778 133.592C306.778 130.947 304.632 128.802 301.985 128.802C299.337 128.802 297.191 130.947 297.191 133.592C297.191 136.238 299.337 138.382 301.985 138.382Z" fill="#2CAD69"/>
<path d="M149.142 459.324L159.131 459.324L163.883 420.823L149.141 420.823L149.142 459.324Z" fill="#FFB6B6"/>
<path d="M146.594 456.065L149.405 456.065L160.382 451.604L166.265 456.064H166.266C169.591 456.065 172.78 457.384 175.131 459.734C177.482 462.083 178.802 465.269 178.803 468.592V468.999L146.594 469L146.594 456.065Z" fill="#2F2E41"/>
<path d="M187.852 453.034L197.596 455.233L210.718 418.723L196.337 415.479L187.852 453.034Z" fill="#FFB6B6"/>
<path d="M186.085 449.294L188.828 449.913L200.518 447.978L205.274 453.624L205.275 453.624C208.518 454.356 211.337 456.345 213.112 459.154C214.888 461.963 215.474 465.362 214.742 468.603L214.652 469L183.234 461.911L186.085 449.294Z" fill="#2F2E41"/>
<path d="M130.855 261.28L139.888 362.41C139.888 362.41 136.504 423.123 147.425 444.488H163.263L171.105 356.865L172.09 298.052L206.046 347.67L184.418 443.055L203.912 444.797L239.007 341.282L200.45 244.106L130.855 261.28Z" fill="#2F2E41"/>
<path d="M140.314 100.233C153.18 100.233 163.609 89.811 163.609 76.9548C163.609 64.0986 153.18 53.6765 140.314 53.6765C127.449 53.6765 117.02 64.0986 117.02 76.9548C117.02 89.811 127.449 100.233 140.314 100.233Z" fill="#FFB8B8"/>
<path d="M181.267 122.416L162.156 114.222L152.853 104.361L129.612 108.107L123.446 118.672L103.484 137.22L126.871 242.89L126.163 265.97C126.163 265.97 141.132 272.703 206.047 257.199C206.825 257.013 205.196 256.199 205.196 256.199L181.267 122.416Z" fill="#3F3D56"/>
<path d="M116.092 90.1634C115.93 89.9421 115.769 89.7189 115.61 89.4938C115.546 89.6289 115.495 89.7686 115.422 89.9006L116.092 90.1634Z" fill="#2F2E41"/>
<path d="M163.489 59.9277C161.931 56.538 159.155 53.8578 155.711 52.4197C152.298 51.0438 148.483 51.0472 145.072 52.429C141.992 50.4846 138.571 48.9432 134.967 48.7523C131.363 48.5614 127.553 49.8973 125.333 52.8381C124.837 53.6144 124.273 54.3456 123.649 55.0233C121.864 56.6753 119.151 56.437 116.779 56.0992C117.843 57.0106 118.907 57.9221 119.972 58.8335C118.684 59.1698 117.396 59.5061 116.107 59.8424C117.611 60.7535 119.114 61.6647 120.617 62.5758C116.253 65.1935 114.269 70.9068 114.793 76.0958C115.289 81.0085 117.662 85.5008 120.5 89.4937C121.632 87.1069 121.388 84.251 121.369 81.5628C121.35 78.7224 121.852 75.497 124.13 73.9096C125.666 72.8388 127.642 72.791 129.495 72.8012C138.84 72.8524 148.175 73.4348 157.455 74.5455C158.714 74.5999 159.941 74.9557 161.034 75.583C163.086 76.9819 163.486 79.8689 163.692 82.4017C164.776 78.2197 165.307 73.9137 165.27 69.5938C165.362 66.2825 164.755 62.9891 163.489 59.9277Z" fill="#2F2E41"/>
<path d="M170.743 332.172C190.992 332.172 207.407 315.769 207.407 295.534C207.407 275.299 190.992 258.896 170.743 258.896C150.493 258.896 134.078 275.299 134.078 295.534C134.078 315.769 150.493 332.172 170.743 332.172Z" fill="white"/>
<path d="M170.741 258.081C168.856 258.082 166.974 258.223 165.111 258.505C164.158 258.643 163.229 258.822 162.308 259.042C155.544 260.6 149.346 264.005 144.406 268.878C139.466 273.751 135.978 279.9 134.331 286.638C132.684 293.376 132.944 300.439 135.08 307.039C137.216 313.639 141.145 319.516 146.428 324.014C147.056 324.544 147.691 325.056 148.351 325.545C153.108 329.089 158.639 331.454 164.488 332.444C170.338 333.435 176.34 333.023 181.999 331.243C187.659 329.463 192.814 326.365 197.042 322.205C201.269 318.044 204.447 312.94 206.315 307.313C208.183 301.685 208.687 295.695 207.785 289.835C206.883 283.975 204.601 278.412 201.128 273.605C197.655 268.798 193.089 264.885 187.806 262.186C182.523 259.487 176.674 258.08 170.741 258.081V258.081ZM170.741 331.358C163.118 331.366 155.693 328.932 149.557 324.413C148.889 323.925 148.245 323.42 147.618 322.883C142.47 318.543 138.651 312.842 136.597 306.432C134.544 300.023 134.34 293.164 136.009 286.644C137.677 280.124 141.152 274.206 146.032 269.569C150.913 264.932 157.003 261.763 163.604 260.426C164.516 260.239 165.429 260.092 166.358 259.978C167.812 259.798 169.276 259.709 170.741 259.71C180.249 259.71 189.367 263.484 196.09 270.202C202.814 276.921 206.591 286.033 206.591 295.534C206.591 305.035 202.814 314.147 196.09 320.866C189.367 327.584 180.249 331.358 170.741 331.358Z" fill="#3F3D56"/>
<path d="M152.757 288.206H188.724C190.041 288.206 191.109 287.139 191.109 285.822V285.705C191.109 284.389 190.041 283.321 188.724 283.321H152.757C151.439 283.321 150.371 284.389 150.371 285.705V285.822C150.371 287.139 151.439 288.206 152.757 288.206Z" fill="#2CAD69"/>
<path d="M152.757 297.977H188.724C190.041 297.977 191.109 296.909 191.109 295.593V295.475C191.109 294.159 190.041 293.091 188.724 293.091H152.757C151.439 293.091 150.371 294.159 150.371 295.475V295.593C150.371 296.909 151.439 297.977 152.757 297.977Z" fill="#2CAD69"/>
<path d="M152.757 307.747H188.724C190.041 307.747 191.109 306.679 191.109 305.363V305.246C191.109 303.929 190.041 302.862 188.724 302.862H152.757C151.439 302.862 150.371 303.929 150.371 305.246V305.363C150.371 306.679 151.439 307.747 152.757 307.747Z" fill="#2CAD69"/>
<path d="M580.934 458.082L570.459 458.081L565.477 417.71L580.935 417.711L580.934 458.082Z" fill="#9E616A"/>
<path d="M531.382 458.082L520.909 458.081L515.926 417.71L531.384 417.711L531.382 458.082Z" fill="#9E616A"/>
<path d="M531.751 469L499.543 468.999V468.592C499.543 465.269 500.864 462.083 503.215 459.734C505.566 457.384 508.755 456.065 512.079 456.064H512.08L517.963 451.604L528.94 456.065L531.752 456.065L531.751 469Z" fill="#2F2E41"/>
<path d="M582.646 469L550.438 468.999V468.592C550.438 465.269 551.759 462.083 554.11 459.734C556.461 457.384 559.649 456.065 562.974 456.064H562.975L568.858 451.604L579.835 456.065L582.646 456.065L582.646 469Z" fill="#2F2E41"/>
<path d="M521.106 219.153L505.188 316.011L509.52 330.445L503.836 340.667L512.184 430.441L508.795 437.896L518.263 443.731H537.528L538.551 362.458L543.31 350.525V343.949L552.997 294.39L554.781 363.794L557.599 375.745L555.232 384.254L558.325 390.216L566.54 445.502H588.143L586.473 432.639C588.354 431.687 589.866 430.138 590.77 428.233C591.674 426.329 591.919 424.179 591.467 422.12L590.228 416.483L593.047 399.813L598.181 306.818L596.733 231.783L571.462 212.472L521.106 219.153Z" fill="#2F2E41"/>
<path d="M557.602 94.7763C568.687 94.7763 577.673 85.7967 577.673 74.7198C577.673 63.6429 568.687 54.6633 557.602 54.6633C546.517 54.6633 537.531 63.6429 537.531 74.7198C537.531 85.7967 546.517 94.7763 557.602 94.7763Z" fill="#9E616A"/>
<path d="M513.75 257.589C514.624 256.687 515.289 255.605 515.698 254.419C516.108 253.232 516.252 251.971 516.121 250.722C515.99 249.474 515.586 248.27 514.939 247.194C514.292 246.119 513.416 245.198 512.375 244.497L520.179 215.003L505.143 220.058L500.036 247.291C498.974 249.118 498.619 251.271 499.039 253.342C499.459 255.413 500.625 257.258 502.316 258.527C504.006 259.796 506.104 260.402 508.211 260.229C510.319 260.056 512.289 259.117 513.75 257.589H513.75Z" fill="#9E616A"/>
<path d="M521.962 115.983L518.734 115.314L515.981 116.837C515.981 116.837 508.292 127.082 508.292 136.473C508.292 145.864 498.895 236.359 498.895 236.359L515.981 244.042L529.651 173.183L521.962 115.983Z" fill="#E6E6E6"/>
<path d="M575.178 60.0147C575.178 60.0147 580.427 49.9864 568.878 49.0748C568.878 49.0748 559.033 40.1499 548.997 47.4432C548.997 47.4432 543.524 47.4432 540.53 53.6331C540.53 53.6331 536.225 52.0015 535.279 56.3681C535.279 56.3681 532.129 65.4847 535.279 73.6896C538.429 81.8946 539.476 82.8062 539.476 82.8062C539.476 82.8062 534.299 65.6041 546.899 64.6925C559.499 63.7808 573.599 55.9123 574.649 65.9405C575.699 75.9688 577.279 78.4397 577.279 78.4397C577.279 78.4397 587.252 64.1172 575.178 60.0147Z" fill="#2F2E41"/>
<path d="M648.495 340.667C646.98 340.669 645.518 340.111 644.389 339.102L583.648 285.071C582.425 283.98 581.684 282.448 581.589 280.811C581.493 279.175 582.052 277.568 583.141 276.342L622.052 232.661C623.144 231.437 624.677 230.697 626.315 230.602C627.952 230.507 629.561 231.064 630.787 232.153L691.529 286.185C692.754 287.275 693.496 288.807 693.591 290.444C693.686 292.08 693.127 293.688 692.036 294.913L653.125 338.594C652.586 339.202 651.932 339.698 651.2 340.052C650.468 340.406 649.674 340.611 648.862 340.656C648.739 340.664 648.617 340.667 648.495 340.667Z" fill="white"/>
<path d="M648.497 341.064C646.885 341.067 645.329 340.473 644.128 339.399L583.387 285.368C582.084 284.207 581.296 282.576 581.195 280.834C581.093 279.093 581.688 277.382 582.847 276.077L621.758 232.396C622.92 231.095 624.552 230.307 626.295 230.206C628.037 230.104 629.749 230.698 631.055 231.856L691.796 285.887C693.1 287.048 693.89 288.678 693.991 290.421C694.092 292.163 693.497 293.874 692.336 295.177L653.425 338.859C652.851 339.506 652.155 340.033 651.376 340.41C650.598 340.787 649.752 341.005 648.888 341.053C648.757 341.06 648.627 341.064 648.497 341.064ZM626.679 231.783C625.974 231.781 625.277 231.929 624.633 232.217C623.99 232.505 623.415 232.926 622.946 233.453L584.035 277.134C583.156 278.124 582.705 279.421 582.782 280.742C582.859 282.063 583.457 283.3 584.445 284.181L645.185 338.211C645.675 338.647 646.246 338.982 646.866 339.198C647.485 339.413 648.141 339.504 648.796 339.466C649.451 339.428 650.092 339.262 650.682 338.976C651.272 338.69 651.801 338.291 652.237 337.802L691.148 294.12C692.029 293.132 692.48 291.834 692.403 290.513C692.327 289.191 691.728 287.955 690.738 287.075L629.997 233.043C629.084 232.23 627.903 231.781 626.679 231.783H626.679Z" fill="#3F3D56"/>
<path d="M670.522 299.298C669.866 299.299 669.233 299.059 668.743 298.622L621.064 256.21C620.8 255.977 620.585 255.694 620.43 255.377C620.276 255.06 620.186 254.717 620.165 254.365C620.144 254.014 620.193 253.662 620.308 253.329C620.423 252.996 620.603 252.69 620.838 252.427C621.072 252.164 621.356 251.95 621.673 251.797C621.99 251.643 622.335 251.554 622.687 251.535C623.038 251.515 623.391 251.564 623.723 251.681C624.055 251.797 624.362 251.978 624.624 252.213L672.304 294.626C672.709 294.986 672.995 295.462 673.124 295.988C673.253 296.515 673.219 297.069 673.026 297.576C672.832 298.083 672.489 298.519 672.042 298.827C671.595 299.134 671.065 299.299 670.522 299.298Z" fill="#2CAD69"/>
<path d="M661.425 309.507C660.769 309.508 660.136 309.267 659.646 308.831L611.967 266.419C611.705 266.185 611.491 265.902 611.338 265.586C611.184 265.27 611.095 264.926 611.075 264.576C611.054 264.225 611.103 263.874 611.219 263.542C611.334 263.21 611.514 262.904 611.748 262.642C611.982 262.379 612.265 262.166 612.581 262.013C612.898 261.86 613.241 261.77 613.592 261.75C613.943 261.73 614.295 261.779 614.627 261.894C614.959 262.01 615.265 262.189 615.527 262.423L663.207 304.835C663.612 305.196 663.899 305.671 664.028 306.198C664.157 306.725 664.122 307.279 663.929 307.785C663.735 308.292 663.392 308.728 662.945 309.036C662.498 309.343 661.968 309.508 661.425 309.507H661.425Z" fill="#2CAD69"/>
<path d="M652.334 319.717C651.678 319.719 651.045 319.478 650.555 319.041L602.876 276.629C602.613 276.396 602.398 276.113 602.245 275.796C602.091 275.48 602.002 275.136 601.981 274.785C601.961 274.434 602.009 274.083 602.125 273.751C602.24 273.418 602.42 273.112 602.654 272.85C602.888 272.587 603.172 272.373 603.488 272.22C603.805 272.067 604.149 271.978 604.5 271.958C604.852 271.938 605.203 271.987 605.536 272.102C605.868 272.218 606.174 272.398 606.437 272.632L654.116 315.045C654.521 315.405 654.808 315.881 654.937 316.408C655.066 316.935 655.031 317.488 654.838 317.995C654.645 318.502 654.302 318.938 653.855 319.246C653.407 319.553 652.877 319.718 652.334 319.717H652.334Z" fill="#2CAD69"/>
<path d="M597.807 259.33C597.195 258.234 596.831 257.017 596.741 255.765C596.651 254.514 596.836 253.257 597.284 252.085C597.732 250.912 598.432 249.852 599.335 248.979C600.237 248.107 601.32 247.442 602.507 247.033L602.559 216.525L615.788 225.275L613.711 252.904C614.267 254.943 614.055 257.114 613.116 259.008C612.177 260.901 610.576 262.384 608.615 263.176C606.655 263.968 604.472 264.014 602.48 263.305C600.488 262.596 598.825 261.182 597.807 259.33H597.807Z" fill="#9E616A"/>
<path d="M599.031 124.343L604.941 118.651L609.283 121.782C609.283 121.782 613.555 126.904 616.972 142.271C620.39 157.639 616.972 242.157 616.972 242.157L598.177 239.596L600.74 195.202L593.051 157.639L599.031 124.343Z" fill="#E6E6E6"/>
<path d="M607.759 120.039L587.847 110.534L574.328 98.0039L549.676 97.8196L541.724 108.15L520.729 115.277L524.228 187.617L521.843 193.18C521.843 193.18 523.505 194.681 524.264 195.52C525.024 196.359 523.215 203.384 523.215 203.384L522.195 211.027L525.024 213.047L521.347 217.387L520.434 224.229C520.434 224.229 584.621 208.287 596.749 234.697C597.39 236.092 595.812 222.455 595.812 222.455L594.234 212.472L595.8 203.511L598.185 201.127L594.184 197.128L596.749 178.156L607.759 120.039Z" fill="#3F3D56"/>
<path d="M156.19 280.412C156.685 279.159 156.898 277.812 156.815 276.467C156.731 275.122 156.354 273.811 155.71 272.628C155.065 271.444 154.168 270.416 153.083 269.616C151.998 268.816 150.75 268.264 149.428 267.998L145.005 235.541L132.18 246.744L138.346 275.848C138.046 278.097 138.583 280.378 139.853 282.258C141.124 284.138 143.04 285.488 145.24 286.05C147.439 286.613 149.769 286.35 151.787 285.311C153.805 284.272 155.372 282.529 156.19 280.412V280.412Z" fill="#FFB8B8"/>
<path d="M105.946 136.627L102.469 137.292L100.368 139.936C100.368 139.936 96.9688 153.259 100.841 162.571C104.714 171.882 132.711 265.478 132.711 265.478L152.821 266.061L137.155 190.175L105.946 136.627Z" fill="#3F3D56"/>
<path d="M185.223 275.651C184.297 274.672 183.596 273.501 183.172 272.223C182.747 270.944 182.608 269.587 182.764 268.249C182.921 266.91 183.369 265.622 184.078 264.476C184.787 263.329 185.738 262.352 186.866 261.612L178.859 229.848L194.94 235.464L200.077 264.768C201.195 266.743 201.548 269.059 201.071 271.277C200.594 273.495 199.319 275.461 197.488 276.802C195.657 278.144 193.397 278.768 191.136 278.556C188.876 278.343 186.772 277.31 185.223 275.651Z" fill="#FFB8B8"/>
<path d="M178.198 123.512L181.672 122.834L184.608 124.504C184.608 124.504 192.734 135.601 192.615 145.684C192.496 155.766 201.44 253.045 201.44 253.045L182.998 261.078L169.219 184.827L178.198 123.512Z" fill="#3F3D56"/>
</g>
<defs>
<clipPath id="clip0_709_947">
<rect width="694" height="469" fill="white"/>
</clipPath>
</defs>
</svg>
